<svg width="14" height="17" viewBox="0 0 14 17" fill="none" xmlns="http://www.w3.org/2000/svg">
<path d="M14 6.68499C14 11.8844 7 16.3411 7 16.3411C7 16.3411 0 11.8844 0 6.68499C2.76642e-08 4.91202 0.737498 3.21167 2.05025 1.95799C3.36301 0.704309 5.14348 0 7 0C8.85652 0 10.637 0.704309 11.9497 1.95799C13.2625 3.21167 14 4.91202 14 6.68499Z" fill="#FF3B30"/>
<path d="M7 8.91332C8.28866 8.91332 9.33333 7.91566 9.33333 6.68499C9.33333 5.45432 8.28866 4.45666 7 4.45666C5.71134 4.45666 4.66667 5.45432 4.66667 6.68499C4.66667 7.91566 5.71134 8.91332 7 8.91332Z" fill="white"/>
</svg>
