<svg width="27" height="16" viewBox="0 0 27 16" fill="none" xmlns="http://www.w3.org/2000/svg">
<path d="M0 12.5098V2.98828C0 1.99219 0.250651 1.24674 0.751953 0.751953C1.25977 0.250651 2.01823 0 3.02734 0H13.7109C14.4596 0 15.1367 0.0553385 15.7422 0.166016C16.3477 0.270182 16.9206 0.445964 17.4609 0.693359C18.0013 0.940755 18.5449 1.27279 19.0918 1.68945C19.6387 2.10612 20.2279 2.62695 20.8594 3.25195L24.8535 7.2168C25.5111 7.86133 25.9961 8.54492 26.3086 9.26758C26.6276 9.98372 26.7871 10.6836 26.7871 11.3672C26.7871 12.1094 26.6016 12.7962 26.2305 13.4277C25.8594 14.0527 25.306 14.554 24.5703 14.9316C23.8411 15.3092 22.9362 15.498 21.8555 15.498H3.02734C2.01823 15.498 1.25977 15.2507 0.751953 14.7559C0.250651 14.2546 0 13.5059 0 12.5098ZM10.332 7.87109C10.332 8.14453 10.4134 8.36263 10.5762 8.52539C10.7389 8.68815 10.9668 8.76953 11.2598 8.76953H21.25C21.4714 8.76953 21.6504 8.69141 21.7871 8.53516C21.9238 8.37891 21.9857 8.18685 21.9727 7.95898C21.9661 7.73112 21.862 7.51628 21.6602 7.31445L19.4141 5.07812C19.069 4.73307 18.7174 4.44987 18.3594 4.22852C18.0013 4.00716 17.6139 3.83464 17.1973 3.71094C16.7806 3.58073 16.3053 3.48958 15.7715 3.4375C15.2441 3.37891 14.6322 3.34961 13.9355 3.34961H11.2598C10.6413 3.34961 10.332 3.65885 10.332 4.27734V7.87109Z" fill="white"/>
</svg>
